# AST/ASF file generated using VICON BodyLanguage
# -----------------------------------------------
:version 1.10
:name VICON
:units
  mass 1.0
  length 0.45
  angle deg
:documentation
   .ast/.asf automatically generated from VICON data using
   VICON BodyBuilder and BodyLanguage model FoxedUp or BRILLIANT.MOD
:root
   order TX TY TZ RX RY RZ
   axis XYZ
   position 0 0 0  
   orientation 0 0 0 
:bonedata
  begin
     id 1 
     name lhipjoint
     direction 0.702568 -0.596508 0.388042 
     length 2.56661 
     axis 0 0 0  XYZ
  end
  begin
     id 2 
     name lfemur
     direction 0.34202 -0.939693 0  
     length 6.58374  
     axis 0 0 20  XYZ
    dof rx ry rz
    limits (-160.0 20.0)
           (-70.0 70.0)
           (-60.0 70.0)
  end
  begin
     id 3 
     name ltibia
     direction 0.34202 -0.939693 0   
     length 6.62538   
     axis 0 0 20   XYZ
    dof rx
    limits (-10.0 170.0)
  end
  begin
     id 4 
     name lfoot
     direction 0.10455 -0.287249 0.952133   
     length 2.26699   
     axis -90 7.62852e-016 20   XYZ
    dof rx rz
    limits (-45.0 90.0)
           (-70.0 20.0)
  end
  begin
     id 5 
     name ltoes
     direction 1.53572e-011 -4.22322e-011 1   
     length 1.12949   
     axis -90 7.62852e-016 20   XYZ
    dof rx
    limits (-90.0 20.0)
  end
  begin
     id 6 
     name rhipjoint
     direction -0.728055 -0.574632 0.373811   
     length 2.66432  
     axis 0 0 0  XYZ 
  end
  begin
     id 7 
     name rfemur
     direction -0.34202 -0.939693 0   
     length 6.66732   
     axis 0 0 -20   XYZ
    dof rx ry rz
    limits (-160.0 20.0)
           (-70.0 70.0)
           (-70.0 60.0)
  end
  begin
     id 8 
     name rtibia
     direction -0.34202 -0.939693 0   
     length 6.59288   
     axis 0 0 -20   XYZ
    dof rx
    limits (-10.0 170.0)
 end
 begin
     id 9 
     name rfoot
     direction -0.119193 -0.327479 0.93731   
     length 2.38061  
     axis -90 -7.62852e-016 -20   XYZ
    dof rx rz
    limits (-45.0 90.0)
           (-20.0 70.0)
  end
  begin
     id 10 
     name rtoes
     direction -1.53547e-011 -4.21827e-011 1   
     length 1.17899   
     axis -90 -7.62852e-016 -20   XYZ
    dof rx
    limits (-90.0 20.0)
  end
  begin
     id 11 
     name lowerback
     direction -0.000416114 0.999912 -0.0132284   
     length 2.12109   
     axis 0 0 0   XYZ
    dof rx ry rz
    limits (-20.0 45.0)
           (-30.0 30.0)
           (-30.0 30.0)
  end
  begin
     id 12 
     name upperback
     direction -0.00136371 0.99809 0.0617608   
     length 2.10067   
     axis 0 0 0   XYZ
    dof rx ry rz
    limits (-20.0 45.0)
           (-30.0 30.0)
           (-30.0 30.0)
  end
  begin
     id 13 
     name thorax
     direction -3.43026e-005 0.997776 0.0666515   
     length 2.10618   
     axis 0 0 0   XYZ
    dof rx ry rz
    limits (-20.0 45.0)
           (-30.0 30.0)
           (-30.0 30.0)
  end
  begin
     id 14 
     name lowerneck
     direction 0.0398646 0.998418 0.0396592   
     length 1.83817   
     axis 0 0 0   XYZ
    dof rx ry rz
    limits (-20.0 45.0)
           (-30.0 30.0)
           (-30.0 30.0)
  end
  begin
     id 15 
     name upperneck
     direction -0.0367268 0.961527 -0.272244   
     length 1.81975   
     axis 0 0 0   XYZ
    dof rx ry rz
    limits (-20.0 45.0)
           (-30.0 30.0)
           (-30.0 30.0)
  end
  begin
     id 16
     name head
     direction -0.0182665 0.99536 -0.0944669  
     length 1.86026  
     axis 0 0 0   XYZ
    dof rx ry rz
    limits (-20.0 45.0)
           (-30.0 30.0)
           (-30.0 30.0)
  end
  begin
     id 17 
     name lclavicle
     direction 0.924239 0.361045 0.124212  
     length 3.26878  
     axis 0 0 0   XYZ
    dof ry rz
    limits (-20.0 10.0)
           (0.0 20.0)
  end
  begin
     id 18 
     name lhumerus
     direction 1 -4.48968e-011 -2.56583e-027   
     length 4.58538   
     axis 180 -30 -90   XYZ
    dof rx ry rz
    limits (-60.0 90.0)
           (-90.0 90.0)
           (-90.0 90.0)
  end
  begin
     id 19
     name lradius
     direction 1 -4.4898e-011 -5.50375e-027   
     length 2.68935   
     axis 180 -30 -90   XYZ
    dof rx
    limits (-10.0 170.0)
  end
  begin
     id 20
     name lwrist
     direction 1 -4.48939e-011 -1.48955e-026   
     length 1.34468   
     axis 9.0955e-015 90 90   XYZ
    dof ry
    limits (-180.0 0.0)
 end
  begin
     id 21 
     name lhand
     direction 1 -4.48936e-011 -2.97907e-026   
     length 0.585058   
     axis 1.90115e-014 90 90   XYZ
    dof rx rz
    limits (-90.0 90.0)
           (-45.0 45.0)
  end
  begin
     id 22 
     name lfingers
     direction 1 -4.49082e-011 -5.96235e-026   
     length 0.471689   
     axis 3.80223e-014 90 90   XYZ
    dof rx
    limits (0.0 90.0)
  end
  begin
     id 23
     name lthumb
     direction 0.707107 -6.3489e-011 0.707107   
     length 0.677253   
     axis -90 45 -3.84942e-014   XYZ
    dof rx rz
    limits (-45.0 45.0)
           (-45.0 45.0)
  end
  begin
     id 24 
     name rclavicle
     direction -0.923098 0.371783 0.0983239   
     length 3.19656  
     axis 0 0 0   XYZ 
    dof ry rz
    limits (-10.0 20.0)
           (-20.0 0.0)
  end
  begin
     id 25 
     name rhumerus
     direction -1 -4.48976e-011 -2.5492e-027  
     length 4.4745   
     axis 180 30 90   XYZ
    dof rx ry rz
    limits (-90.0 60.0)
           (-90.0 90.0)
           (-90.0 90.0)
  end
  begin
     id 26 
     name rradius
     direction -1 -4.48941e-011 -4.36555e-027   
     length 2.93896   
     axis 180 30 90   XYZ
    dof rx
    limits (-10.0 170.0)
  end
  begin
     id 27 
     name rwrist
     direction -1 -4.49044e-011 -1.49032e-026   
     length 1.46948   
     axis 9.0955e-015 -90 -90   XYZ
    dof ry
    limits (-180.0 0.0)
  end
  begin
     id 28
     name rhand
     direction -1 -4.48826e-011 -2.97749e-026   
     length 0.405092   
     axis 1.90115e-014 -90 -90   XYZ
    dof rx rz
    limits (-90.0 90.0)
           (-45.0 45.0)
  end
  begin
     id 29
     name rfingers
     direction -1 -4.49209e-011 -5.96602e-026   
     length 0.326596   
     axis 3.80223e-014 -90 -90   XYZ
    dof rx
    limits (0.0 90.0)
  end
  begin
     id 30
     name rthumb
     direction -0.707107 -6.34776e-011 0.707107   
     length 0.468928   
     axis -90 -45 3.84942e-014   XYZ
    dof rx rz
    limits (-45.0 45.0)
           (-45.0 45.0)
  end
:hierarchy
  begin
    root lhipjoint rhipjoint lowerback
    lhipjoint lfemur
    lfemur ltibia
    ltibia lfoot
    lfoot ltoes
    rhipjoint rfemur
    rfemur rtibia
    rtibia rfoot
    rfoot rtoes
    lowerback upperback
    upperback thorax
    thorax lowerneck lclavicle rclavicle
    lowerneck upperneck
    upperneck head
    lclavicle lhumerus
    lhumerus lradius
    lradius lwrist
    lwrist lhand lthumb
    lhand lfingers
    rclavicle rhumerus
    rhumerus rradius
    rradius rwrist
    rwrist rhand rthumb
    rhand rfingers
  end

#!OML:ASF H:\Punching\Project 1\Capture day 1\Session 1\female.ASF
:FULLY-SPECIFIED
:DEGREES
166
root 0.994062 15.3783 8.16879 7.80328 7.19947 0.0574796
lowerback -0.804581 1.57138 -0.825387
upperback -5.74523 2.05054 -1.03768
thorax -5.4795 1.03747 -0.695375
lowerneck -9.26668 -1.60273 6.32845
upperneck 24.2394 -2.80925 -2.48785
head 8.98112 -0.988553 -2.20841
rclavicle 1.97542e-014 1.59028e-015
rhumerus 39.8575 42.3611 -29.2292
rradius 100.539
rwrist -47.1586
rhand -11.7274 -15.4454
rfingers 7.12502
rthumb 14.3197 -44.9316
lclavicle 1.97542e-014 1.59028e-015
lhumerus -30.7863 -49.381 98.7455
lradius 124.298
lwrist 5.57674
lhand -20.3651 8.88463
lfingers 7.12502
lthumb 5.98734 38.78
rfemur -34.632 2.67648 2.51533
rtibia 27.3225
rfoot 8.06437 -12.3522
rtoes -12.9598
lfemur -1.06563 -13.3575 -13.4871
ltibia 15.0458
lfoot -19.5396 10.2827
ltoes -12.764
167
root 0.904085 15.3653 8.25648 7.91359 7.85963 0.0852182
lowerback -0.848733 1.47927 -0.963155
upperback -5.79614 1.92396 -1.05983
thorax -5.51263 0.980993 -0.636244
lowerneck -9.32608 -1.68733 6.1881
upperneck 24.4594 -2.92911 -2.39013
head 9.06688 -1.04104 -2.16852
rclavicle 5.31749e-015 -3.97569e-016
rhumerus 41.2364 40.1319 -26.8497
rradius 100.524
rwrist -45.7952
rhand -11.6331 -14.8466
rfingers 7.12502
rthumb 14.4105 -44.3263
lclavicle 5.31749e-015 -3.97569e-016
lhumerus -31.0233 -49.0795 98.4079
lradius 124.426
lwrist 6.00391
lhand -20.053 9.24384
lfingers 7.12502
lthumb 6.28867 39.1305
rfemur -34.6633 1.90188 2.90624
rtibia 27.8654
rfoot 8.26761 -11.9717
rtoes -12.9022
lfemur -0.622046 -13.6722 -13.0195
ltibia 14.1983
lfoot -19.3914 10.0406
ltoes -13.0885
168
root 0.810481 15.3492 8.34684 8.03748 8.53846 0.144921
lowerback -0.896488 1.38109 -1.13797
upperback -5.8467 1.78798 -1.09525
thorax -5.5437 0.921394 -0.569722
lowerneck -9.41283 -1.77128 6.04072
upperneck 24.7027 -3.05095 -2.28469
head 9.16678 -1.09359 -2.126
rclavicle -9.93923e-015 1.47101e-014
rhumerus 42.4366 37.8715 -24.6254
rradius 100.42
rwrist -44.441
rhand -11.4589 -14.21
rfingers 7.12502
rthumb 14.5784 -43.6777
lclavicle -9.93923e-015 1.47101e-014
lhumerus -31.2345 -48.7587 98.0211
lradius 124.532
lwrist 6.38243
lhand -19.7186 9.47492
lfingers 7.12502
lthumb 6.61152 39.3517
rfemur -34.7001 0.998146 3.36013
rtibia 28.5931
rfoot 8.00435 -11.4525
rtoes -12.8999
lfemur -0.186577 -14.0109 -12.5611
ltibia 13.3376
lfoot -19.2432 9.80926
ltoes -13.3904
169
root 0.713977 15.3308 8.44002 8.16811 9.23242 0.233613
lowerback -0.943075 1.28411 -1.33061
upperback -5.90241 1.65234 -1.15144
thorax -5.58031 0.862431 -0.514971
lowerneck -9.48771 -1.86154 5.88341
upperneck 24.9536 -3.18296 -2.16326
head 9.26797 -1.1497 -2.07735
rclavicle -1.90088e-014 -3.97569e-015
rhumerus 43.4376 35.6006 -22.5727
rradius 100.232
rwrist -43.1555
rhand -11.1644 -13.5016
rfingers 7.12502
rthumb 14.8621 -42.9485
lclavicle -1.90088e-014 -3.97569e-015
lhumerus -31.4597 -48.4264 97.6201
lradius 124.617
lwrist 6.68924
lhand -19.3886 9.674
lfingers 7.12502
lthumb 6.93001 39.5406
rfemur -34.7332 0.0177043 3.85099
rtibia 29.4782
rfoot 7.2326 -10.8411
rtoes -12.9271
lfemur 0.268007 -14.3752 -12.1153
ltibia 12.4294
lfoot -19.0762 9.59811
ltoes -13.6806
170
root 0.615216 15.3107 8.53586 8.30096 9.93917 0.345297
lowerback -0.988986 1.20172 -1.51933
upperback -5.94553 1.53493 -1.24496
thorax -5.60246 0.811384 -0.501629
lowerneck -9.60792 -1.96811 5.74272
upperneck 25.222 -3.34932 -2.02373
head 9.38358 -1.21764 -2.03002
rclavicle 9.69075e-015 1.39149e-014
rhumerus 44.2251 33.2939 -20.7066
rradius 99.9693
rwrist -41.9974
rhand -10.8015 -12.7725
rfingers 7.12502
rthumb 15.2117 -42.1933
lclavicle 9.69075e-015 1.39149e-014
lhumerus -31.64 -48.1264 97.16
lradius 124.675
lwrist 6.95837
lhand -19.0755 9.83133
lfingers 7.12502
lthumb 7.23226 39.6877
rfemur -34.7589 -0.980314 4.35277
rtibia 30.4841
rfoot 6.00248 -10.235
rtoes -12.886
lfemur 0.766799 -14.7663 -11.6813
ltibia 11.4329
lfoot -18.8658 9.41624
ltoes -13.963
171
root 0.514891 15.2898 8.6339 8.43067 10.653 0.466722
lowerback -1.0273 1.12486 -1.69687
upperback -5.98889 1.42433 -1.35645
thorax -5.62823 0.762778 -0.513702
lowerneck -9.71611 -2.08254 5.59512
upperneck 25.4966 -3.52929 -1.86706
head 9.50021 -1.29016 -1.97706
rclavicle 1.89094e-014 7.15625e-015
rhumerus 44.8477 31.0087 -18.9941
rradius 99.6378
rwrist -40.9921
rhand -10.4103 -12.0393
rfingers 7.12502
rthumb 15.5886 -41.4311
lclavicle 1.89094e-014 7.15625e-015
lhumerus -31.8613 -47.8119 96.7172
lradius 124.714
lwrist 7.16766
lhand -18.7605 9.99187
lfingers 7.12502
lthumb 7.53631 39.8376
rfemur -34.778 -1.93776 4.85003
rtibia 31.5698
rfoot 4.43035 -9.7166
rtoes -12.6982
lfemur 1.33745 -15.1816 -11.2506
ltibia 10.3007
lfoot -18.5862 9.27081
ltoes -14.2205
172
root 0.41384 15.2692 8.73342 8.55401 11.3712 0.589996
lowerback -1.05463 1.05214 -1.85098
upperback -6.02762 1.3189 -1.48457
thorax -5.6543 0.715173 -0.556542
lowerneck -9.82851 -2.19964 5.45229
upperneck 25.7833 -3.71847 -1.69672
head 9.62314 -1.36425 -1.92159
rclavicle 8.67198e-015 1.39149e-014
rhumerus 45.3275 28.7484 -17.4309
rradius 99.2422
rwrist -40.1287
rhand -10.0187 -11.3374
rfingers 7.12502
rthumb 15.9656 -40.6994
lclavicle 8.67198e-015 1.39149e-014
lhumerus -32.1249 -47.4654 96.2896
lradius 124.738
lwrist 7.36409
lhand -18.4279 10.0954
lfingers 7.12502
lthumb 7.85737 39.9294
rfemur -34.7907 -2.8231 5.33103
rtibia 32.6915
rfoot 2.69077 -9.33908
rtoes -12.2497
lfemur 2.00424 -15.6216 -10.8203
ltibia 8.98561
lfoot -18.2089 9.17699
ltoes -14.4493
173
root 0.312349 15.2493 8.83349 8.67164 12.086 0.705935
lowerback -1.06627 0.977853 -1.98099
upperback -6.06787 1.21119 -1.618
thorax -5.69027 0.665169 -0.618717
lowerneck -9.92772 -2.31206 5.31087
upperneck 26.0806 -3.90405 -1.51583
head 9.74912 -1.4346 -1.86238
rclavicle 1.30204e-014 7.15625e-015
rhumerus 45.6991 26.5332 -16.0043
rradius 98.7809
rwrist -39.3642
rhand -9.62898 -10.6862
rfingers 7.12502
rthumb 16.3409 -40.0177
lclavicle 1.30204e-014 7.15625e-015
lhumerus -32.4682 -47.061 95.9084
lradius 124.755
lwrist 7.53905
lhand -18.0712 10.1422
lfingers 7.12502
lthumb 8.20157 39.963
rfemur -34.804 -3.61409 5.79496
rtibia 33.8144
rfoot 0.903961 -9.11709
rtoes -11.6476
lfemur 2.79792 -16.0678 -10.3828
ltibia 7.41474
lfoot -17.6843 9.15181
ltoes -14.6405
174
root 0.210997 15.2297 8.93322 8.78347 12.7906 0.811267
lowerback -1.05793 0.898182 -2.08643
upperback -6.11165 1.09602 -1.7512
thorax -5.74094 0.610332 -0.694596
lowerneck -10.0091 -2.41442 5.17145
upperneck 26.3889 -4.07813 -1.32551
head 9.87776 -1.49764 -1.7989
rclavicle -1.04362e-015 -5.1684e-015
rhumerus 45.9926 24.3656 -14.7069
rradius 98.2513
rwrist -38.6072
rhand -9.21072 -10.1271
rfingers 7.12502
rthumb 16.7436 -39.4251
lclavicle -1.04362e-015 -5.1684e-015
lhumerus -32.8979 -46.6042 95.5822
lradius 124.779
lwrist 7.71567
lhand -17.7205 10.1678
lfingers 7.12502
lthumb 8.54011 39.9751
rfemur -34.824 -4.32766 6.24992
rtibia 34.9144
rfoot -0.853824 -9.00542
rtoes -10.9063
lfemur 3.80153 -16.5054 -9.93939
ltibia 5.42202
lfoot -16.9316 9.18035
ltoes -14.8038
175
root 0.110533 15.2104 9.03201 8.89294 13.4764 0.90654
lowerback -1.03199 0.814976 -2.16238
upperback -6.16647 0.975633 -1.88721
thorax -5.81299 0.5515 -0.790204
lowerneck -10.0523 -2.50511 5.04665
upperneck 26.7021 -4.23843 -1.13055
head 10.0026 -1.55186 -1.73403
rclavicle 3.26504e-014 1.59028e-014
rhumerus 46.2086 22.2511 -13.5479
rradius 97.6436
rwrist -37.6945
rhand -8.68714 -9.57153
rfingers 7.12502
rthumb 17.2476 -38.8261
lclavicle 3.26504e-014 1.59028e-014
lhumerus -33.4348 -46.0814 95.3205
lradius 124.811
lwrist 7.86761
lhand -17.3432 10.1606
lfingers 7.12502
lthumb 8.9042 39.9528
rfemur -34.8582 -5.00262 6.70953
rtibia 35.98
rfoot -2.52837 -8.96332
rtoes -9.93162
lfemur 5.43636 -16.9356 -9.49891
ltibia 2.16782
lfoot -15.5291 9.24497
ltoes -14.9572
176
root 0.0113977 15.1912 9.12886 9.00883 14.1337 0.994598
lowerback -0.989985 0.731143 -2.21377
upperback -6.22179 0.853933 -2.02729
thorax -5.89466 0.490673 -0.903945
lowerneck -10.1067 -2.58365 4.93508
upperneck 27.0243 -4.39021 -0.921587
head 10.1348 -1.59846 -1.66585
rclavicle 5.11871e-014 -1.59028e-015
rhumerus 46.3627 20.1533 -12.5371
rradius 96.9362
rwrist -36.474
rhand -7.99757 -8.96505
rfingers 7.12502
rthumb 17.9112 -38.1603
lclavicle 5.11871e-014 -1.59028e-015
lhumerus -34.0381 -45.5134 95.097
lradius 124.862
lwrist 7.98738
lhand -16.9619 10.1548
lfingers 7.12502
lthumb 9.27207 39.9309
rfemur -34.9248 -5.66423 7.1802
rtibia 37.0101
rfoot -4.0919 -8.96206
rtoes -8.84543
lfemur 6.51614 -17.3347 -9.06374
ltibia -3.49861e-014
lfoot -14.6629 9.44782
ltoes -15.1278
177
root -0.0860035 15.1723 9.2231 9.13889 14.7532 1.06673
lowerback -0.93875 0.648683 -2.23078
upperback -6.2895 0.733922 -2.16879
thorax -5.99478 0.428957 -1.03875
lowerneck -10.1432 -2.6488 4.83978
upperneck 27.3462 -4.52954 -0.701408
head 10.2652 -1.63597 -1.59451
rclavicle 6.95746e-015 6.36111e-015
rhumerus 46.4584 18.0764 -11.704
rradius 96.1007
rwrist -34.7657
rhand -7.09052 -8.24234
rfingers 7.12502
rthumb 18.7838 -37.3554
lclavicle 6.95746e-015 6.36111e-015
lhumerus -34.7441 -44.8904 94.9356
lradius 124.939
lwrist 8.07728
lhand -16.5709 10.1493
lfingers 7.12502
lthumb 9.64934 39.9083
rfemur -35.0423 -6.32476 7.67846
rtibia 38.0113
rfoot -5.52048 -8.97236
rtoes -7.83567
lfemur 6.48704 -17.6755 -8.61756
ltibia -9.54166e-015
lfoot -14.8855 9.81059
ltoes -15.3229
